# xmcd
#
# Track frame offsets:
#	150
#	1432
#	6992
#	39585
#	62500
#	76967
#	86469
#	132853
#	144229
#	242637
#	249037
#
# Disc length: 3333 seconds
# Revision: 0
# Processed by: cddbd v1.5.2PL0 Copyright (c) Steve Scherf et al.
# Submitted via: dBpowerAMP V12.0
#
DISCID=7a0d030b
DTITLE=Hale Dwoskin - The Inner Circle Retreat 03 CD 16
DYEAR=2007
DGENRE=Speech
TTITLE0=Intro Music
TTITLE1=Participant Gain
TTITLE2=There Are No Personal Tendencies
TTITLE3=You Are Pure Aliveness
TTITLE4=The Ocean Does Not Try to Still Itself
TTITLE5=The Illusion of Me
TTITLE6=Release on Returning Home from the Retreat
TTITLE7=About the new Audio Programs
TTITLE8=Your Feelings Are Just Waves
TTITLE9=Participant Gain
TTITLE10=Concluding Music
EXTD=
EXTT0=
EXTT1=
EXTT2=
EXTT3=
EXTT4=
EXTT5=
EXTT6=
EXTT7=
EXTT8=
EXTT9=
EXTT10=
PLAYORDER=
